<?xml version="1.0" encoding="UTF-8"?>
<svg id="Layer_1" data-name="Layer 1" xmlns="http://www.w3.org/2000/svg" xmlns:xlink="http://www.w3.org/1999/xlink" viewBox="0 0 512 512">
  <defs>
    <style>
      .cls-1 {
        fill: url(#linear-gradient);
      }

      .cls-2 {
        fill: #fff;
      }
    </style>
    <linearGradient id="linear-gradient" x1="-2.41" y1="-2.71" x2="510.32" y2="510.61" gradientUnits="userSpaceOnUse">
      <stop offset="0" stop-color="#5e5e5e"/>
      <stop offset="1" stop-color="#000"/>
    </linearGradient>
  </defs>
  <rect class="cls-1" x="-.32" y="-.32" width="512.32" height="512.32"/>
  <path class="cls-2" d="M88.42,284.62v-79.26c0-9.32,7.56-16.88,16.88-16.88h3.47c9.32,0,16.88,7.56,16.88,16.88v79.26c0,9.32-7.56,16.88-16.88,16.88h-3.47c-9.32,0-16.88-7.56-16.88-16.88ZM386.34,205.36h0c0,9.32-7.56,16.88-16.88,16.88h-3.47c-9.32,0-16.88-7.56-16.88-16.88v-55.95c0-9.32-7.56-16.88-16.88-16.88h-3.47c-9.32,0-16.88,7.56-16.88,16.88v94.33c0,9.32-7.56,16.88-16.88,16.88h-3.47c-9.32,0-16.88-7.56-16.88-16.88V89.93c0-9.32-7.56-16.88-16.88-16.88h-3.47c-9.32,0-16.88,7.56-16.88,16.88v82.76c0,9.32-7.56,16.88-16.88,16.88h-3.47c-9.32,0-16.88-7.56-16.88-16.88v-23.28c0-9.32-7.56-16.88-16.88-16.88h-3.47c-9.32,0-16.88,7.56-16.88,16.88v191.15c0,9.32,7.56,16.88,16.88,16.88h3.47c9.32,0,16.88-7.56,16.88-16.88v-88.62c0-9.32,7.56-16.88,16.88-16.88h3.47c9.32,0,16.88,7.56,16.88,16.88v148.1c0,9.32,7.56,16.88,16.88,16.88h3.47c9.32,0,16.88-7.56,16.88-16.88v-77.05c0-9.32,7.56-16.88,16.88-16.88h3.47c9.32,0,16.88,7.56,16.88,16.88v17.57c0,9.32,7.56,16.88,16.88,16.88h3.47c9.32,0,16.88-7.56,16.88-16.88v-55.95c0-9.32,7.56-16.88,16.88-16.88h3.47c9.32,0,16.88,7.56,16.88,16.88h0c0,9.32,7.56,16.88,16.88,16.88h3.47c9.32,0,16.88-7.56,16.88-16.88v-79.26c0-9.32-7.56-16.88-16.88-16.88h-3.47c-9.32,0-16.88,7.56-16.88,16.88Z"/>
</svg>